<svg height="384pt" viewBox="-75 0 384 384" width="384pt" xmlns="http://www.w3.org/2000/svg"><path d="m224 192c0 4.265625-1.28125 8.535156-3.625 11.734375l-106.667969 160c-3.839843 5.757813-10.242187 9.597656-17.707031 9.597656h-64c-11.734375 0-21.332031-9.597656-21.332031-21.332031 0-4.265625 1.277343-8.535156 3.625-11.734375l98.773437-148.265625-98.773437-148.265625c-2.347657-3.199219-3.625-7.46875-3.625-11.734375 0-11.734375 9.597656-21.332031 21.332031-21.332031h64c7.464844 0 13.867188 3.839843 17.707031 9.597656l106.667969 160c2.34375 3.199219 3.625 7.46875 3.625 11.734375zm0 0" fill="#021299"/><path d="m90.667969 384h-53.335938c-20.585937 0-37.332031-16.746094-37.332031-37.332031 0-7.722657 2.390625-15.253907 6.699219-21.164063l92.246093-133.503906-92.480468-133.824219c-4.074219-5.546875-6.464844-13.078125-6.464844-20.84375 0-20.585937 16.746094-37.332031 37.332031-37.332031h53.335938c12.4375 0 24.042969 6.25 31.015625 16.726562l106.519531 154.453126c4.074219 5.566406 6.464844 13.097656 6.464844 20.820312 0 7.765625-2.390625 15.296875-6.742188 21.207031l-106.390625 154.257813c-6.824218 10.285156-18.429687 16.535156-30.867187 16.535156zm-53.335938-352c-2.898437 0-5.332031 2.433594-5.332031 5.332031 0 1.132813.363281 2.027344.511719 2.242188l99.050781 143.316406c3.777344 5.484375 3.777344 12.734375 0 18.21875l-98.773438 142.933594c-.425781.574219-.789062 1.449219-.789062 2.625 0 2.898437 2.433594 5.332031 5.332031 5.332031h53.335938c2.386719 0 3.773437-1.535156 4.394531-2.476562l106.816406-154.878907c.425782-.617187.789063-1.515625.789063-2.644531 0-1.171875-.363281-2.046875-.535157-2.28125l-106.921874-155.03125c-.769532-1.152344-2.15625-2.6875-4.542969-2.6875zm0 0" fill="#fff"/></svg>